<?xml version="1.0" encoding="UTF-8" standalone="no"?>
<!-- Created with Inkscape (http://www.inkscape.org/) -->

<svg
   width="310mm"
   height="310mm"
   viewBox="0 0 310 310"
   version="1.1"
   id="svg5"
   inkscape:version="1.1.2 (b8e25be833, 2022-02-05)"
   sodipodi:docname="lissajous_310.svg"
   xmlns:inkscape="http://www.inkscape.org/namespaces/inkscape"
   xmlns:sodipodi="http://sodipodi.sourceforge.net/DTD/sodipodi-0.dtd"
   xmlns="http://www.w3.org/2000/svg"
   xmlns:svg="http://www.w3.org/2000/svg">
  <sodipodi:namedview
     id="namedview7"
     pagecolor="#ffffff"
     bordercolor="#666666"
     borderopacity="1.0"
     inkscape:pageshadow="2"
     inkscape:pageopacity="0.0"
     inkscape:pagecheckerboard="0"
     inkscape:document-units="mm"
     showgrid="false"
     inkscape:zoom="0.7198092"
     inkscape:cx="873.14805"
     inkscape:cy="561.25984"
     inkscape:window-width="1920"
     inkscape:window-height="1046"
     inkscape:window-x="-11"
     inkscape:window-y="-11"
     inkscape:window-maximized="1"
     inkscape:current-layer="layer1" />
  <defs
     id="defs2" />
  <g
     inkscape:label="Layer 1"
     inkscape:groupmode="layer"
     id="layer1">
    <polygon
       fill="none"
       points="2548.6295,1623.2382 2548.1348,1635.4169 2547.5641,1647.5829 2546.9173,1659.7343 2546.1947,1671.8693 2545.3962,1683.9862 2544.5219,1696.083 2543.5719,1708.1581 2542.5462,1720.2095 2541.4449,1732.2355 2540.2681,1744.2344 2539.0159,1756.2042 2537.6883,1768.1432 2536.2856,1780.0497 2534.8078,1791.9219 2533.2549,1803.7579 2531.6272,1815.5561 2529.9247,1827.3147 2528.1476,1839.0318 2526.296,1850.7058 2524.3701,1862.3349 2522.3699,1873.9174 2520.2957,1885.4516 2518.1476,1896.9357 2515.9258,1908.3679 2513.6305,1919.7468 2511.2617,1931.0704 2508.8197,1942.3371 2506.3048,1953.5453 2503.717,1964.6932 2501.0565,1975.7793 2498.3237,1986.8018 2495.5186,1997.7591 2492.6415,2008.6496 2489.6926,2019.4716 2486.6722,2030.2235 2483.5804,2040.9038 2480.4176,2051.5107 2477.1839,2062.0429 2473.8795,2072.4986 2470.5049,2082.8763 2467.0601,2093.1744 2463.5455,2103.3915 2459.9613,2113.526 2456.3078,2123.5764 2452.5853,2133.5412 2448.794,2143.4189 2444.9344,2153.208 2441.0065,2162.9071 2437.0108,2172.5146 2432.9476,2182.0293 2428.8171,2191.4496 2424.6197,2200.7742 2420.3557,2210.0017 2416.0254,2219.1306 2411.6292,2228.1597 2407.1673,2237.0875 2402.6402,2245.9128 2398.0481,2254.6342 2393.3914,2263.2504 2388.6706,2271.7602 2383.8858,2280.1623 2379.0376,2288.4553 2374.1262,2296.6382 2369.152,2304.7096 2364.1155,2312.6683 2359.017,2320.5132 2353.8569,2328.2431 2348.6355,2335.8569 2343.3533,2343.3533 2338.0108,2350.7314 2332.6082,2357.9899 2327.146,2365.1278 2321.6246,2372.144 2316.0444,2379.0376 2310.406,2385.8074 2304.7096,2392.4524 2298.9557,2398.9717 2293.1448,2405.3643 2287.2773,2411.6292 2281.3537,2417.7655 2275.3744,2423.7722 2269.3398,2429.6486 2263.2504,2435.3936 2257.1068,2441.0065 2250.9093,2446.4864 2244.6584,2451.8325 2238.3546,2457.044 2231.9984,2462.1201 2225.5902,2467.0601 2219.1306,2471.8632 2212.62,2476.5286 2206.059,2481.0558 2199.448,2485.444 2192.7876,2489.6926 2186.0782,2493.801 2179.3204,2497.7684 2172.5146,2501.5944 2165.6615,2505.2784 2158.7614,2508.8197 2151.815,2512.218 2144.8228,2515.4726 2137.7853,2518.5832 2130.703,2521.5491 2123.5764,2524.3701 2116.4062,2527.0456 2109.1929,2529.5752 2101.937,2531.9587 2094.639,2534.1956 2087.2996,2536.2856 2079.9193,2538.2284 2072.4986,2540.0237 2065.0381,2541.6712 2057.5384,2543.1706 2050,2544.5219 2042.4236,2545.7247 2034.8096,2546.7789 2027.1588,2547.6843 2019.4716,2548.4408 2011.7486,2549.0482 2003.9905,2549.5066 1996.1978,2549.8157 1988.3711,2549.9756 1980.5111,2549.9863 1972.6183,2549.8477 1964.6932,2549.5599 1956.7366,2549.1228 1948.7491,2548.5367 1940.7311,2547.8015 1932.6834,2546.9173 1924.6066,2545.8844 1916.5012,2544.7028 1908.3679,2543.3728 1900.2074,2541.8944 1892.0201,2540.2681 1883.8069,2538.4939 1875.5682,2536.5722 1867.3047,2534.5032 1859.017,2532.2873 1850.7058,2529.9247 1842.3717,2527.4159 1834.0153,2524.7612 1825.6374,2521.961 1817.2384,2519.0157 1808.819,2515.9258 1800.38,2512.6917 1791.9219,2509.314 1783.4454,2505.793 1774.9511,2502.1294 1766.4396,2498.3237 1757.9117,2494.3764 1749.3679,2490.2881 1740.809,2486.0595 1732.2355,2481.6912 1723.6482,2477.1839 1715.0476,2472.5381 1706.4345,2467.7546 1697.8094,2462.8342 1689.1731,2457.7775 1680.5262,2452.5853 1671.8693,2447.2584 1663.2032,2441.7975 1654.5285,2436.2036 1645.8458,2430.4774 1637.1557,2424.6197 1628.4591,2418.6315 1619.7565,2412.5137 1611.0485,2406.2671 1602.336,2399.8927 1593.6194,2393.3914 1584.8995,2386.7643 1576.1769,2380.0123 1567.4524,2373.1364 1558.7265,2366.1376 1550,2359.017 1541.2735,2351.7756 1532.5476,2344.4146 1523.8231,2336.935 1515.1005,2329.338 1506.3806,2321.6246 1497.664,2313.796 1488.9515,2305.8535 1480.2435,2297.7981 1471.5409,2289.6311 1462.8443,2281.3537 1454.1542,2272.9671 1445.4715,2264.4727 1436.7968,2255.8716 1428.1307,2247.1651 1419.4738,2238.3546 1410.8269,2229.4413 1402.1906,2220.4266 1393.5655,2211.3119 1384.9524,2202.0984 1376.3518,2192.7876 1367.7645,2183.3809 1359.191,2173.8796 1350.6321,2164.2852 1342.0883,2154.5991 1333.5604,2144.8228 1325.0489,2134.9577 1316.5546,2125.0053 1308.0781,2114.967 1299.62,2104.8444 1291.181,2094.639 1282.7616,2084.3523 1274.3626,2073.9859 1265.9847,2063.5413 1257.6283,2053.0199 1249.2942,2042.4236 1240.983,2031.7537 1232.6953,2021.0119 1224.4318,2010.1998 1216.1931,1999.319 1207.9799,1988.3711 1199.7926,1977.3579 1191.6321,1966.2808 1183.4988,1955.1416 1175.3934,1943.9419 1167.3166,1932.6834 1159.2689,1921.3678 1151.2509,1909.9968 1143.2634,1898.572 1135.3068,1887.0953 1127.3817,1875.5682 1119.4889,1863.9925 1111.6289,1852.3699 1103.8022,1840.7022 1096.0095,1828.9911 1088.2514,1817.2384 1080.5284,1805.4458 1072.8412,1793.615 1065.1904,1781.7479 1057.5764,1769.8462 1050,1757.9117 1042.4616,1745.9461 1034.9619,1733.9514 1027.5014,1721.9291 1020.0807,1709.8812 1012.7004,1697.8094 1005.361,1685.7156 998.06301,1673.6015 990.8071,1661.4689 983.59376,1649.3197 976.42356,1637.1557 969.29704,1624.9787 962.21475,1612.7905 955.17721,1600.5929 948.18498,1588.3878 941.23857,1576.1769 934.33852,1563.9622 927.48536,1551.7453 920.67961,1539.5282 913.92178,1527.3127 907.21239,1515.1005 900.55195,1502.8935 893.94097,1490.6936 887.37995,1478.5026 880.86939,1466.3222 874.40979,1454.1542 868.00164,1442.0006 861.64542,1429.8632 855.34163,1417.7436 849.09074,1405.6438 842.89322,1393.5655 836.74955,1381.5106 830.6602,1369.4809 824.62563,1357.478 818.6463,1345.5039 812.72266,1333.5604 806.85517,1321.6491 801.04428,1309.772 795.29042,1297.9306 789.59403,1286.127 783.95556,1274.3626 778.37542,1262.6395 772.85404,1250.9592 767.39184,1239.3236 761.98925,1227.7343 756.64666,1216.1931 751.36449,1204.7018 746.14314,1193.262 740.98301,1181.8754 735.88448,1170.5438 730.84796,1159.2689 725.87381,1148.0522 720.96243,1136.8956 716.11418,1125.8006 711.32943,1114.7689 706.60855,1103.8022 701.9519,1092.9021 697.35984,1082.0702 692.8327,1071.3081 688.37084,1060.6175 683.9746,1050 679.6443,1039.4571 675.38029,1028.9904 671.18289,1018.6014 667.05241,1008.2918 662.98917,998.06301 658.99348,987.91662 655.06564,977.85413 651.20595,967.87703 647.41472,957.98682 643.69221,948.18498 640.03873,938.47296 636.45454,928.85222 632.93993,919.32419 629.49515,909.8903 626.12047,900.55195 622.81615,891.31054 619.58243,882.16744 616.41957,873.12403 613.32781,864.18165 610.30738,855.34163 607.35851,846.6053 604.48142,837.97395 601.67634,829.44889 598.94348,821.03137 596.28305,812.72266 593.69524,804.524 591.18027,796.43661 588.7383,788.46169 586.36955,780.60044 584.07417,772.85404 581.85236,765.22363 579.70427,757.71036 577.63008,750.31534 575.62994,743.03969 573.70399,735.88448 571.8524,728.85079 570.0753,721.93967 568.37282,715.15214 566.74509,708.48922 565.19225,701.9519 563.7144,695.54117 562.31166,689.25797 560.98414,683.10325 559.73193,677.07792 558.55514,671.18289 557.45385,665.41902 556.42814,659.7872 555.4781,654.28824 554.6038,648.92298 553.8053,643.69221 553.08267,638.59672 552.43595,633.63727 551.8652,628.81459 551.37047,624.12942 550.95178,619.58243 550.60917,615.17432 550.34268,610.90575 550.1523,606.77734 550.03808,602.78972 550,598.94348 550.03808,595.2392 550.1523,591.67743 550.34268,588.25869 550.60917,584.98351 550.95178,581.85236 551.37047,578.86572 551.8652,576.02403 552.43595,573.32772 553.08267,570.77719 553.8053,568.37282 554.6038,566.11496 555.4781,564.00396 556.42814,562.04013 557.45385,560.22377 558.55514,558.55514 559.73193,557.03449 560.98414,555.66206 562.31166,554.43804 563.7144,553.36261 565.19225,552.43595 566.74509,551.65818 568.37282,551.02943 570.0753,550.54978 571.8524,550.21932 573.70399,550.03808 575.62994,550.00609 577.63008,550.12337 579.70427,550.38988 581.85236,550.8056 584.07417,551.37047 586.36955,552.08438 588.7383,552.94725 591.18027,553.95893 593.69524,555.11929 596.28305,556.42814 598.94348,557.8853 601.67634,559.49054 604.48142,561.24362 607.35851,563.14428 610.30738,565.19225 613.32781,567.3872 616.41957,569.72883 619.58243,572.21676 622.81615,574.85065 626.12047,577.63008 629.49515,580.55465 632.93993,583.62392 636.45454,586.83743 640.03873,590.19471 643.69221,593.69524 647.41472,597.33852 651.20595,601.12399 655.06564,605.05109 658.99348,609.11923 662.98917,613.32781 667.05241,617.6762 671.18289,622.16375 675.38029,626.78978 679.6443,631.55362 683.9746,636.45454 688.37084,641.49182 692.8327,646.66471 697.35984,651.97242 701.9519,657.41418 706.60855,662.98917 711.32943,668.69655 716.11418,674.53547 720.96243,680.50507 725.87381,686.60445 730.84796,692.8327 735.88448,699.18889 740.98301,705.67207 746.14314,712.28128 751.36449,719.01553 756.64666,725.87381 761.98925,732.8551 767.39184,739.95836 772.85404,747.18252 778.37542,754.52652 783.95556,761.98925 789.59403,769.56959 795.29042,777.26643 801.04428,785.0786 806.85517,793.00494 812.72266,801.04428 818.6463,809.1954 824.62563,817.4571 830.6602,825.82814 836.74955,834.30727 842.89322,842.89322 849.09074,851.58471 855.34163,860.38046 861.64542,869.27913 868.00164,878.27941 874.40979,887.37995 880.86939,896.5794 887.37995,905.87637 893.94097,915.26949 900.55195,924.75734 907.21239,934.33852 913.92178,944.0116 920.67961,953.77513 927.48536,963.62764 934.33852,973.56768 941.23857,983.59376 948.18498,993.70438 955.17721,1003.898 962.21475,1014.1732 969.29704,1024.5283 976.42356,1034.9619 983.59376,1045.4724 990.8071,1056.0581 998.06301,1066.7176 1005.361,1077.4492 1012.7004,1088.2514 1020.0807,1099.1225 1027.5014,1110.0608 1034.9619,1121.0649 1042.4616,1132.1329 1050,1143.2634 1057.5764,1154.4545 1065.1904,1165.7047 1072.8412,1177.0122 1080.5284,1188.3754 1088.2514,1199.7926 1096.0095,1211.2621 1103.8022,1222.7821 1111.6289,1234.351 1119.4889,1245.9669 1127.3817,1257.6283 1135.3068,1269.3333 1143.2634,1281.0802 1151.2509,1292.8672 1159.2689,1304.6926 1167.3166,1316.5546 1175.3934,1328.4515 1183.4988,1340.3814 1191.6321,1352.3427 1199.7926,1364.3334 1207.9799,1376.3518 1216.1931,1388.3962 1224.4318,1400.4647 1232.6953,1412.5555 1240.983,1424.6668 1249.2942,1436.7968 1257.6283,1448.9437 1265.9847,1461.1057 1274.3626,1473.281 1282.7616,1485.4677 1291.181,1497.664 1299.62,1509.8682 1308.0781,1522.0784 1316.5546,1534.2927 1325.0489,1546.5093 1333.5604,1558.7265 1342.0883,1570.9424 1350.6321,1583.1552 1359.191,1595.363 1367.7645,1607.564 1376.3518,1619.7565 1384.9524,1631.9385 1393.5655,1644.1083 1402.1906,1656.2641 1410.8269,1668.404 1419.4738,1680.5262 1428.1307,1692.6289 1436.7968,1704.7104 1445.4715,1716.7687 1454.1542,1728.8022 1462.8443,1740.809 1471.5409,1752.7873 1480.2435,1764.7353 1488.9515,1776.6513 1497.664,1788.5335 1506.3806,1800.38 1515.1005,1812.1892 1523.8231,1823.9592 1532.5476,1835.6884 1541.2735,1847.3749 1550,1859.017 1558.7265,1870.613 1567.4524,1882.1611 1576.1769,1893.6597 1584.8995,1905.107 1593.6194,1916.5012 1602.336,1927.8408 1611.0485,1939.124 1619.7565,1950.349 1628.4591,1961.5144 1637.1557,1972.6183 1645.8458,1983.6591 1654.5285,1994.6352 1663.2032,2005.5449 1671.8693,2016.3866 1680.5262,2027.1588 1689.1731,2037.8597 1697.8094,2048.4877 1706.4345,2059.0414 1715.0476,2069.5191 1723.6482,2079.9193 1732.2355,2090.2403 1740.809,2100.4807 1749.3679,2110.639 1757.9117,2120.7136 1766.4396,2130.703 1774.9511,2140.6057 1783.4454,2150.4202 1791.9219,2160.1452 1800.38,2169.779 1808.819,2179.3204 1817.2384,2188.7678 1825.6374,2198.1199 1834.0153,2207.3752 1842.3717,2216.5325 1850.7058,2225.5902 1859.017,2234.5471 1867.3047,2243.4018 1875.5682,2252.1531 1883.8069,2260.7995 1892.0201,2269.3398 1900.2074,2277.7728 1908.3679,2286.0971 1916.5012,2294.3115 1924.6066,2302.4149 1932.6834,2310.406 1940.7311,2318.2835 1948.7491,2326.0464 1956.7366,2333.6935 1964.6932,2341.2235 1972.6183,2348.6355 1980.5111,2355.9283 1988.3711,2363.1008 1996.1978,2370.1519 2003.9905,2377.0806 2011.7486,2383.8858 2019.4716,2390.5666 2027.1588,2397.1219 2034.8096,2403.5508 2042.4236,2409.8523 2050,2416.0254 2057.5384,2422.0693 2065.0381,2427.983 2072.4986,2433.7656 2079.9193,2439.4164 2087.2996,2444.9344 2094.639,2450.3188 2101.937,2455.5688 2109.1929,2460.6837 2116.4062,2465.6626 2123.5764,2470.5049 2130.703,2475.2097 2137.7853,2479.7765 2144.8228,2484.2045 2151.815,2488.493 2158.7614,2492.6415 2165.6615,2496.6493 2172.5146,2500.5157 2179.3204,2504.2403 2186.0782,2507.8225 2192.7876,2511.2617 2199.448,2514.5574 2206.059,2517.7092 2212.62,2520.7165 2219.1306,2523.5789 2225.5902,2526.296 2231.9984,2528.8674 2238.3546,2531.2927 2244.6584,2533.5715 2250.9093,2535.7035 2257.1068,2537.6883 2263.2504,2539.5258 2269.3398,2541.2155 2275.3744,2542.7573 2281.3537,2544.151 2287.2773,2545.3962 2293.1448,2546.4929 2298.9557,2547.4408 2304.7096,2548.2398 2310.406,2548.8899 2316.0444,2549.3908 2321.6246,2549.7426 2327.146,2549.9452 2332.6082,2549.9985 2338.0108,2549.9025 2343.3533,2549.6573 2348.6355,2549.2629 2353.8569,2548.7194 2359.017,2548.0267 2364.1155,2547.1851 2369.152,2546.1947 2374.1262,2545.0556 2379.0376,2543.7679 2383.8858,2542.3319 2388.6706,2540.7478 2393.3914,2539.0159 2398.0481,2537.1363 2402.6402,2535.1093 2407.1673,2532.9353 2411.6292,2530.6147 2416.0254,2528.1476 2420.3557,2525.5345 2424.6197,2522.7759 2428.8171,2519.872 2432.9476,2516.8234 2437.0108,2513.6305 2441.0065,2510.2937 2444.9344,2506.8136 2448.794,2503.1907 2452.5853,2499.4255 2456.3078,2495.5186 2459.9613,2491.4705 2463.5455,2487.282 2467.0601,2482.9535 2470.5049,2478.4858 2473.8795,2473.8795 2477.1839,2469.1353 2480.4176,2464.254 2483.5804,2459.2361 2486.6722,2454.0825 2489.6926,2448.794 2492.6415,2443.3714 2495.5186,2437.8154 2498.3237,2432.1269 2501.0565,2426.3067 2503.717,2420.3557 2506.3048,2414.2748 2508.8197,2408.0649 2511.2617,2401.7269 2513.6305,2395.2618 2515.9258,2388.6706 2518.1476,2381.9541 2520.2957,2375.1135 2522.3699,2368.1497 2524.3701,2361.0638 2526.296,2353.8569 2528.1476,2346.5299 2529.9247,2339.0841 2531.6272,2331.5205 2533.2549,2323.8402 2534.8078,2316.0444 2536.2856,2308.1343 2537.6883,2300.1111 2539.0159,2291.9758 2540.2681,2283.7299 2541.4449,2275.3744 2542.5462,2266.9106 2543.5719,2258.3398 2544.5219,2249.6633 2545.3962,2240.8824 2546.1947,2231.9984 2546.9173,2223.0125 2547.5641,2213.9262 2548.1348,2204.7408 2548.6295,2195.4577 2549.0482,2186.0782 2549.3908,2176.6038 2549.6573,2167.0359 2549.8477,2157.3758 2549.9619,2147.6251 2550,2137.7853 2549.9619,2127.8576 2549.8477,2117.8437 2549.6573,2107.7451 2549.3908,2097.5632 2549.0482,2087.2996 2548.6295,2076.9558 2548.1348,2066.5333 2547.5641,2056.0338 2546.9173,2045.4587 2546.1947,2034.8096 2545.3962,2024.0882 2544.5219,2013.296 2543.5719,2002.4347 2542.5462,1991.5059 2541.4449,1980.5111 2540.2681,1969.4521 2539.0159,1958.3305 2537.6883,1947.1479 2536.2856,1935.906 2534.8078,1924.6066 2533.2549,1913.2512 2531.6272,1901.8416 2529.9247,1890.3796 2528.1476,1878.8666 2526.296,1867.3047 2524.3701,1855.6953 2522.3699,1844.0403 2520.2957,1832.3415 2518.1476,1820.6004 2515.9258,1808.819 2513.6305,1796.999 2511.2617,1785.1421 2508.8197,1773.2501 2506.3048,1761.3248 2503.717,1749.3679 2501.0565,1737.3813 2498.3237,1725.3667 2495.5186,1713.326 2492.6415,1701.2608 2489.6926,1689.1731 2486.6722,1677.0646 2483.5804,1664.9372 2480.4176,1652.7925 2477.1839,1640.6326 2473.8795,1628.4591 2470.5049,1616.2739 2467.0601,1604.0788 2463.5455,1591.8757 2459.9613,1579.6662 2456.3078,1567.4524 2452.5853,1555.236 2448.794,1543.0187 2444.9344,1530.8026 2441.0065,1518.5892 2437.0108,1506.3806 2432.9476,1494.1785 2428.8171,1481.9847 2424.6197,1469.8011 2420.3557,1457.6294 2416.0254,1445.4715 2411.6292,1433.3293 2407.1673,1421.2044 2402.6402,1409.0988 2398.0481,1397.0142 2393.3914,1384.9524 2388.6706,1372.9153 2383.8858,1360.9046 2379.0376,1348.9221 2374.1262,1336.9696 2369.152,1325.0489 2364.1155,1313.1619 2359.017,1301.3101 2353.8569,1289.4955 2348.6355,1277.7198 2343.3533,1265.9847 2338.0108,1254.2919 2332.6082,1242.6434 2327.146,1231.0407 2321.6246,1219.4856 2316.0444,1207.9799 2310.406,1196.5252 2304.7096,1185.1232 2298.9557,1173.7757 2293.1448,1162.4844 2287.2773,1151.2509 2281.3537,1140.077 2275.3744,1128.9642 2269.3398,1117.9143 2263.2504,1106.9288 2257.1068,1096.0095 2250.9093,1085.158 2244.6584,1074.3758 2238.3546,1063.6646 2231.9984,1053.026 2225.5902,1042.4616 2219.1306,1031.973 2212.62,1021.5617 2206.059,1011.2292 2199.448,1000.9772 2192.7876,990.8071 2186.0782,980.72048 2179.3204,970.71883 2172.5146,960.80364 2165.6615,950.9764 2158.7614,941.23857 2151.815,931.5916 2144.8228,922.03694 2137.7853,912.57601 2130.703,903.21022 2123.5764,893.94097 2116.4062,884.76965 2109.1929,875.69761 2101.937,866.72623 2094.639,857.85683 2087.2996,849.09074 2079.9193,840.42926 2072.4986,831.8737 2065.0381,823.42533 2057.5384,815.0854 2050,806.85517 2042.4236,798.73587 2034.8096,790.72869 2027.1588,782.83485 2019.4716,775.05551 2011.7486,767.39184 2003.9905,759.84499 1996.1978,752.41607 1988.3711,745.1062 1980.5111,737.91647 1972.6183,730.84796 1964.6932,723.90171 1956.7366,717.07876 1948.7491,710.38014 1940.7311,703.80683 1932.6834,697.35984 1924.6066,691.0401 1916.5012,684.84858 1908.3679,678.78619 1900.2074,672.85384 1892.0201,667.05241 1883.8069,661.38277 1875.5682,655.84576 1867.3047,650.44222 1859.017,645.17295 1850.7058,640.03873 1842.3717,635.04033 1834.0153,630.1785 1825.6374,625.45397 1817.2384,620.86743 1808.819,616.41957 1800.38,612.11107 1791.9219,607.94255 1783.4454,603.91464 1774.9511,600.02795 1766.4396,596.28305 1757.9117,592.6805 1749.3679,589.22085 1740.809,585.9046 1732.2355,582.73225 1723.6482,579.70427 1715.0476,576.82113 1706.4345,574.08324 1697.8094,571.49101 1689.1731,569.04484 1680.5262,566.74509 1671.8693,564.5921 1663.2032,562.58619 1654.5285,560.72767 1645.8458,559.0168 1637.1557,557.45385 1628.4591,556.03904 1619.7565,554.7726 1611.0485,553.6547 1602.336,552.68552 1593.6194,551.8652 1584.8995,551.19386 1576.1769,550.67161 1567.4524,550.29851 1558.7265,550.07463 1550,550 1541.2735,550.07463 1532.5476,550.29851 1523.8231,550.67161 1515.1005,551.19386 1506.3806,551.8652 1497.664,552.68552 1488.9515,553.6547 1480.2435,554.7726 1471.5409,556.03904 1462.8443,557.45385 1454.1542,559.0168 1445.4715,560.72767 1436.7968,562.58619 1428.1307,564.5921 1419.4738,566.74509 1410.8269,569.04484 1402.1906,571.49101 1393.5655,574.08324 1384.9524,576.82113 1376.3518,579.70427 1367.7645,582.73225 1359.191,585.9046 1350.6321,589.22085 1342.0883,592.6805 1333.5604,596.28305 1325.0489,600.02795 1316.5546,603.91464 1308.0781,607.94255 1299.62,612.11107 1291.181,616.41957 1282.7616,620.86743 1274.3626,625.45397 1265.9847,630.1785 1257.6283,635.04033 1249.2942,640.03873 1240.983,645.17295 1232.6953,650.44222 1224.4318,655.84576 1216.1931,661.38277 1207.9799,667.05241 1199.7926,672.85384 1191.6321,678.78619 1183.4988,684.84858 1175.3934,691.0401 1167.3166,697.35984 1159.2689,703.80683 1151.2509,710.38014 1143.2634,717.07876 1135.3068,723.90171 1127.3817,730.84796 1119.4889,737.91647 1111.6289,745.1062 1103.8022,752.41607 1096.0095,759.84499 1088.2514,767.39184 1080.5284,775.05551 1072.8412,782.83485 1065.1904,790.72869 1057.5764,798.73587 1050,806.85517 1042.4616,815.0854 1034.9619,823.42533 1027.5014,831.8737 1020.0807,840.42926 1012.7004,849.09074 1005.361,857.85683 998.06301,866.72623 990.8071,875.69761 983.59376,884.76965 976.42356,893.94097 969.29704,903.21022 962.21475,912.57601 955.17721,922.03694 948.18498,931.5916 941.23857,941.23857 934.33852,950.9764 927.48536,960.80364 920.67961,970.71883 913.92178,980.72048 907.21239,990.8071 900.55195,1000.9772 893.94097,1011.2292 887.37995,1021.5617 880.86939,1031.973 874.40979,1042.4616 868.00164,1053.026 861.64542,1063.6646 855.34163,1074.3758 849.09074,1085.158 842.89322,1096.0095 836.74955,1106.9288 830.6602,1117.9143 824.62563,1128.9642 818.6463,1140.077 812.72266,1151.2509 806.85517,1162.4844 801.04428,1173.7757 795.29042,1185.1232 789.59403,1196.5252 783.95556,1207.9799 778.37542,1219.4856 772.85404,1231.0407 767.39184,1242.6434 761.98925,1254.2919 756.64666,1265.9847 751.36449,1277.7198 746.14314,1289.4955 740.98301,1301.3101 735.88448,1313.1619 730.84796,1325.0489 725.87381,1336.9696 720.96243,1348.9221 716.11418,1360.9046 711.32943,1372.9153 706.60855,1384.9524 701.9519,1397.0142 697.35984,1409.0988 692.8327,1421.2044 688.37084,1433.3293 683.9746,1445.4715 679.6443,1457.6294 675.38029,1469.8011 671.18289,1481.9847 667.05241,1494.1785 662.98917,1506.3806 658.99348,1518.5892 655.06564,1530.8026 651.20595,1543.0187 647.41472,1555.236 643.69221,1567.4524 640.03873,1579.6662 636.45454,1591.8757 632.93993,1604.0788 629.49515,1616.2739 626.12047,1628.4591 622.81615,1640.6326 619.58243,1652.7925 616.41957,1664.9372 613.32781,1677.0646 610.30738,1689.1731 607.35851,1701.2608 604.48142,1713.326 601.67634,1725.3667 598.94348,1737.3813 596.28305,1749.3679 593.69524,1761.3248 591.18027,1773.2501 588.7383,1785.1421 586.36955,1796.999 584.07417,1808.819 581.85236,1820.6004 579.70427,1832.3415 577.63008,1844.0403 575.62994,1855.6953 573.70399,1867.3047 571.8524,1878.8666 570.0753,1890.3796 568.37282,1901.8416 566.74509,1913.2512 565.19225,1924.6066 563.7144,1935.906 562.31166,1947.1479 560.98414,1958.3305 559.73193,1969.4521 558.55514,1980.5111 557.45385,1991.5059 556.42814,2002.4347 555.4781,2013.296 554.6038,2024.0882 553.8053,2034.8096 553.08267,2045.4587 552.43595,2056.0338 551.8652,2066.5333 551.37047,2076.9558 550.95178,2087.2996 550.60917,2097.5632 550.34268,2107.7451 550.1523,2117.8437 550.03808,2127.8576 550,2137.7853 550.03808,2147.6251 550.1523,2157.3758 550.34268,2167.0359 550.60917,2176.6038 550.95178,2186.0782 551.37047,2195.4577 551.8652,2204.7408 552.43595,2213.9262 553.08267,2223.0125 553.8053,2231.9984 554.6038,2240.8824 555.4781,2249.6633 556.42814,2258.3398 557.45385,2266.9106 558.55514,2275.3744 559.73193,2283.7299 560.98414,2291.9758 562.31166,2300.1111 563.7144,2308.1343 565.19225,2316.0444 566.74509,2323.8402 568.37282,2331.5205 570.0753,2339.0841 571.8524,2346.5299 573.70399,2353.8569 575.62994,2361.0638 577.63008,2368.1497 579.70427,2375.1135 581.85236,2381.9541 584.07417,2388.6706 586.36955,2395.2618 588.7383,2401.7269 591.18027,2408.0649 593.69524,2414.2748 596.28305,2420.3557 598.94348,2426.3067 601.67634,2432.1269 604.48142,2437.8154 607.35851,2443.3714 610.30738,2448.794 613.32781,2454.0825 616.41957,2459.2361 619.58243,2464.254 622.81615,2469.1353 626.12047,2473.8795 629.49515,2478.4858 632.93993,2482.9535 636.45454,2487.282 640.03873,2491.4705 643.69221,2495.5186 647.41472,2499.4255 651.20595,2503.1907 655.06564,2506.8136 658.99348,2510.2937 662.98917,2513.6305 667.05241,2516.8234 671.18289,2519.872 675.38029,2522.7759 679.6443,2525.5345 683.9746,2528.1476 688.37084,2530.6147 692.8327,2532.9353 697.35984,2535.1093 701.9519,2537.1363 706.60855,2539.0159 711.32943,2540.7478 716.11418,2542.3319 720.96243,2543.7679 725.87381,2545.0556 730.84796,2546.1947 735.88448,2547.1851 740.98301,2548.0267 746.14314,2548.7194 751.36449,2549.2629 756.64666,2549.6573 761.98925,2549.9025 767.39184,2549.9985 772.85404,2549.9452 778.37542,2549.7426 783.95556,2549.3908 789.59403,2548.8899 795.29042,2548.2398 801.04428,2547.4408 806.85517,2546.4929 812.72266,2545.3962 818.6463,2544.151 824.62563,2542.7573 830.6602,2541.2155 836.74955,2539.5258 842.89322,2537.6883 849.09074,2535.7035 855.34163,2533.5715 861.64542,2531.2927 868.00164,2528.8674 874.40979,2526.296 880.86939,2523.5789 887.37995,2520.7165 893.94097,2517.7092 900.55195,2514.5574 907.21239,2511.2617 913.92178,2507.8225 920.67961,2504.2403 927.48536,2500.5157 934.33852,2496.6493 941.23857,2492.6415 948.18498,2488.493 955.17721,2484.2045 962.21475,2479.7765 969.29704,2475.2097 976.42356,2470.5049 983.59376,2465.6626 990.8071,2460.6837 998.06301,2455.5688 1005.361,2450.3188 1012.7004,2444.9344 1020.0807,2439.4164 1027.5014,2433.7656 1034.9619,2427.983 1042.4616,2422.0693 1050,2416.0254 1057.5764,2409.8523 1065.1904,2403.5508 1072.8412,2397.1219 1080.5284,2390.5666 1088.2514,2383.8858 1096.0095,2377.0806 1103.8022,2370.1519 1111.6289,2363.1008 1119.4889,2355.9283 1127.3817,2348.6355 1135.3068,2341.2235 1143.2634,2333.6935 1151.2509,2326.0464 1159.2689,2318.2835 1167.3166,2310.406 1175.3934,2302.4149 1183.4988,2294.3115 1191.6321,2286.0971 1199.7926,2277.7728 1207.9799,2269.3398 1216.1931,2260.7995 1224.4318,2252.1531 1232.6953,2243.4018 1240.983,2234.5471 1249.2942,2225.5902 1257.6283,2216.5325 1265.9847,2207.3752 1274.3626,2198.1199 1282.7616,2188.7678 1291.181,2179.3204 1299.62,2169.779 1308.0781,2160.1452 1316.5546,2150.4202 1325.0489,2140.6057 1333.5604,2130.703 1342.0883,2120.7136 1350.6321,2110.639 1359.191,2100.4807 1367.7645,2090.2403 1376.3518,2079.9193 1384.9524,2069.5191 1393.5655,2059.0414 1402.1906,2048.4877 1410.8269,2037.8597 1419.4738,2027.1588 1428.1307,2016.3866 1436.7968,2005.5449 1445.4715,1994.6352 1454.1542,1983.6591 1462.8443,1972.6183 1471.5409,1961.5144 1480.2435,1950.349 1488.9515,1939.124 1497.664,1927.8408 1506.3806,1916.5012 1515.1005,1905.107 1523.8231,1893.6597 1532.5476,1882.1611 1541.2735,1870.613 1550,1859.017 1558.7265,1847.3749 1567.4524,1835.6884 1576.1769,1823.9592 1584.8995,1812.1892 1593.6194,1800.38 1602.336,1788.5335 1611.0485,1776.6513 1619.7565,1764.7353 1628.4591,1752.7873 1637.1557,1740.809 1645.8458,1728.8022 1654.5285,1716.7687 1663.2032,1704.7104 1671.8693,1692.6289 1680.5262,1680.5262 1689.1731,1668.404 1697.8094,1656.2641 1706.4345,1644.1083 1715.0476,1631.9385 1723.6482,1619.7565 1732.2355,1607.564 1740.809,1595.363 1749.3679,1583.1552 1757.9117,1570.9424 1766.4396,1558.7265 1774.9511,1546.5093 1783.4454,1534.2927 1791.9219,1522.0784 1800.38,1509.8682 1808.819,1497.664 1817.2384,1485.4677 1825.6374,1473.281 1834.0153,1461.1057 1842.3717,1448.9437 1850.7058,1436.7968 1859.017,1424.6668 1867.3047,1412.5555 1875.5682,1400.4647 1883.8069,1388.3962 1892.0201,1376.3518 1900.2074,1364.3334 1908.3679,1352.3427 1916.5012,1340.3814 1924.6066,1328.4515 1932.6834,1316.5546 1940.7311,1304.6926 1948.7491,1292.8672 1956.7366,1281.0802 1964.6932,1269.3333 1972.6183,1257.6283 1980.5111,1245.9669 1988.3711,1234.351 1996.1978,1222.7821 2003.9905,1211.2621 2011.7486,1199.7926 2019.4716,1188.3754 2027.1588,1177.0122 2034.8096,1165.7047 2042.4236,1154.4545 2050,1143.2634 2057.5384,1132.1329 2065.0381,1121.0649 2072.4986,1110.0608 2079.9193,1099.1225 2087.2996,1088.2514 2094.639,1077.4492 2101.937,1066.7176 2109.1929,1056.0581 2116.4062,1045.4724 2123.5764,1034.9619 2130.703,1024.5283 2137.7853,1014.1732 2144.8228,1003.898 2151.815,993.70438 2158.7614,983.59376 2165.6615,973.56768 2172.5146,963.62764 2179.3204,953.77513 2186.0782,944.0116 2192.7876,934.33852 2199.448,924.75734 2206.059,915.26949 2212.62,905.87637 2219.1306,896.5794 2225.5902,887.37995 2231.9984,878.27941 2238.3546,869.27913 2244.6584,860.38046 2250.9093,851.58471 2257.1068,842.89322 2263.2504,834.30727 2269.3398,825.82814 2275.3744,817.4571 2281.3537,809.1954 2287.2773,801.04428 2293.1448,793.00494 2298.9557,785.0786 2304.7096,777.26643 2310.406,769.56959 2316.0444,761.98925 2321.6246,754.52652 2327.146,747.18252 2332.6082,739.95836 2338.0108,732.8551 2343.3533,725.87381 2348.6355,719.01553 2353.8569,712.28128 2359.017,705.67207 2364.1155,699.18889 2369.152,692.8327 2374.1262,686.60445 2379.0376,680.50507 2383.8858,674.53547 2388.6706,668.69655 2393.3914,662.98917 2398.0481,657.41418 2402.6402,651.97242 2407.1673,646.66471 2411.6292,641.49182 2416.0254,636.45454 2420.3557,631.55362 2424.6197,626.78978 2428.8171,622.16375 2432.9476,617.6762 2437.0108,613.32781 2441.0065,609.11923 2444.9344,605.05109 2448.794,601.12399 2452.5853,597.33852 2456.3078,593.69524 2459.9613,590.19471 2463.5455,586.83743 2467.0601,583.62392 2470.5049,580.55465 2473.8795,577.63008 2477.1839,574.85065 2480.4176,572.21676 2483.5804,569.72883 2486.6722,567.3872 2489.6926,565.19225 2492.6415,563.14428 2495.5186,561.24362 2498.3237,559.49054 2501.0565,557.8853 2503.717,556.42814 2506.3048,555.11929 2508.8197,553.95893 2511.2617,552.94725 2513.6305,552.08438 2515.9258,551.37047 2518.1476,550.8056 2520.2957,550.38988 2522.3699,550.12337 2524.3701,550.00609 2526.296,550.03808 2528.1476,550.21932 2529.9247,550.54978 2531.6272,551.02943 2533.2549,551.65818 2534.8078,552.43595 2536.2856,553.36261 2537.6883,554.43804 2539.0159,555.66206 2540.2681,557.03449 2541.4449,558.55514 2542.5462,560.22377 2543.5719,562.04013 2544.5219,564.00396 2545.3962,566.11496 2546.1947,568.37282 2546.9173,570.77719 2547.5641,573.32772 2548.1348,576.02403 2548.6295,578.86572 2549.0482,581.85236 2549.3908,584.98351 2549.6573,588.25869 2549.8477,591.67743 2549.9619,595.2392 2550,598.94348 2549.9619,602.78972 2549.8477,606.77734 2549.6573,610.90575 2549.3908,615.17432 2549.0482,619.58243 2548.6295,624.12942 2548.1348,628.81459 2547.5641,633.63727 2546.9173,638.59672 2546.1947,643.69221 2545.3962,648.92298 2544.5219,654.28824 2543.5719,659.7872 2542.5462,665.41902 2541.4449,671.18289 2540.2681,677.07792 2539.0159,683.10325 2537.6883,689.25797 2536.2856,695.54117 2534.8078,701.9519 2533.2549,708.48922 2531.6272,715.15214 2529.9247,721.93967 2528.1476,728.85079 2526.296,735.88448 2524.3701,743.03969 2522.3699,750.31534 2520.2957,757.71036 2518.1476,765.22363 2515.9258,772.85404 2513.6305,780.60044 2511.2617,788.46169 2508.8197,796.43661 2506.3048,804.524 2503.717,812.72266 2501.0565,821.03137 2498.3237,829.44889 2495.5186,837.97395 2492.6415,846.6053 2489.6926,855.34163 2486.6722,864.18165 2483.5804,873.12403 2480.4176,882.16744 2477.1839,891.31054 2473.8795,900.55195 2470.5049,909.8903 2467.0601,919.32419 2463.5455,928.85222 2459.9613,938.47296 2456.3078,948.18498 2452.5853,957.98682 2448.794,967.87703 2444.9344,977.85413 2441.0065,987.91662 2437.0108,998.06301 2432.9476,1008.2918 2428.8171,1018.6014 2424.6197,1028.9904 2420.3557,1039.4571 2416.0254,1050 2411.6292,1060.6175 2407.1673,1071.3081 2402.6402,1082.0702 2398.0481,1092.9021 2393.3914,1103.8022 2388.6706,1114.7689 2383.8858,1125.8006 2379.0376,1136.8956 2374.1262,1148.0522 2369.152,1159.2689 2364.1155,1170.5438 2359.017,1181.8754 2353.8569,1193.262 2348.6355,1204.7018 2343.3533,1216.1931 2338.0108,1227.7343 2332.6082,1239.3236 2327.146,1250.9592 2321.6246,1262.6395 2316.0444,1274.3626 2310.406,1286.127 2304.7096,1297.9306 2298.9557,1309.772 2293.1448,1321.6491 2287.2773,1333.5604 2281.3537,1345.5039 2275.3744,1357.478 2269.3398,1369.4809 2263.2504,1381.5106 2257.1068,1393.5655 2250.9093,1405.6438 2244.6584,1417.7436 2238.3546,1429.8632 2231.9984,1442.0006 2225.5902,1454.1542 2219.1306,1466.3222 2212.62,1478.5026 2206.059,1490.6936 2199.448,1502.8935 2192.7876,1515.1005 2186.0782,1527.3127 2179.3204,1539.5282 2172.5146,1551.7453 2165.6615,1563.9622 2158.7614,1576.1769 2151.815,1588.3878 2144.8228,1600.5929 2137.7853,1612.7905 2130.703,1624.9787 2123.5764,1637.1557 2116.4062,1649.3197 2109.1929,1661.4689 2101.937,1673.6015 2094.639,1685.7156 2087.2996,1697.8094 2079.9193,1709.8812 2072.4986,1721.9291 2065.0381,1733.9514 2057.5384,1745.9461 2050,1757.9117 2042.4236,1769.8462 2034.8096,1781.7479 2027.1588,1793.615 2019.4716,1805.4458 2011.7486,1817.2384 2003.9905,1828.9911 1996.1978,1840.7022 1988.3711,1852.3699 1980.5111,1863.9925 1972.6183,1875.5682 1964.6932,1887.0953 1956.7366,1898.572 1948.7491,1909.9968 1940.7311,1921.3678 1932.6834,1932.6834 1924.6066,1943.9419 1916.5012,1955.1416 1908.3679,1966.2808 1900.2074,1977.3579 1892.0201,1988.3711 1883.8069,1999.319 1875.5682,2010.1998 1867.3047,2021.0119 1859.017,2031.7537 1850.7058,2042.4236 1842.3717,2053.0199 1834.0153,2063.5413 1825.6374,2073.9859 1817.2384,2084.3523 1808.819,2094.639 1800.38,2104.8444 1791.9219,2114.967 1783.4454,2125.0053 1774.9511,2134.9577 1766.4396,2144.8228 1757.9117,2154.5991 1749.3679,2164.2852 1740.809,2173.8796 1732.2355,2183.3809 1723.6482,2192.7876 1715.0476,2202.0984 1706.4345,2211.3119 1697.8094,2220.4266 1689.1731,2229.4413 1680.5262,2238.3546 1671.8693,2247.1651 1663.2032,2255.8716 1654.5285,2264.4727 1645.8458,2272.9671 1637.1557,2281.3537 1628.4591,2289.6311 1619.7565,2297.7981 1611.0485,2305.8535 1602.336,2313.796 1593.6194,2321.6246 1584.8995,2329.338 1576.1769,2336.935 1567.4524,2344.4146 1558.7265,2351.7756 1550,2359.017 1541.2735,2366.1376 1532.5476,2373.1364 1523.8231,2380.0123 1515.1005,2386.7643 1506.3806,2393.3914 1497.664,2399.8927 1488.9515,2406.2671 1480.2435,2412.5137 1471.5409,2418.6315 1462.8443,2424.6197 1454.1542,2430.4774 1445.4715,2436.2036 1436.7968,2441.7975 1428.1307,2447.2584 1419.4738,2452.5853 1410.8269,2457.7775 1402.1906,2462.8342 1393.5655,2467.7546 1384.9524,2472.5381 1376.3518,2477.1839 1367.7645,2481.6912 1359.191,2486.0595 1350.6321,2490.2881 1342.0883,2494.3764 1333.5604,2498.3237 1325.0489,2502.1294 1316.5546,2505.793 1308.0781,2509.314 1299.62,2512.6917 1291.181,2515.9258 1282.7616,2519.0157 1274.3626,2521.961 1265.9847,2524.7612 1257.6283,2527.4159 1249.2942,2529.9247 1240.983,2532.2873 1232.6953,2534.5032 1224.4318,2536.5722 1216.1931,2538.4939 1207.9799,2540.2681 1199.7926,2541.8944 1191.6321,2543.3728 1183.4988,2544.7028 1175.3934,2545.8844 1167.3166,2546.9173 1159.2689,2547.8015 1151.2509,2548.5367 1143.2634,2549.1228 1135.3068,2549.5599 1127.3817,2549.8477 1119.4889,2549.9863 1111.6289,2549.9756 1103.8022,2549.8157 1096.0095,2549.5066 1088.2514,2549.0482 1080.5284,2548.4408 1072.8412,2547.6843 1065.1904,2546.7789 1057.5764,2545.7247 1050,2544.5219 1042.4616,2543.1706 1034.9619,2541.6712 1027.5014,2540.0237 1020.0807,2538.2284 1012.7004,2536.2856 1005.361,2534.1956 998.06301,2531.9587 990.8071,2529.5752 983.59376,2527.0456 976.42356,2524.3701 969.29704,2521.5491 962.21475,2518.5832 955.17721,2515.4726 948.18498,2512.218 941.23857,2508.8197 934.33852,2505.2784 927.48536,2501.5944 920.67961,2497.7684 913.92178,2493.801 907.21239,2489.6926 900.55195,2485.444 893.94097,2481.0558 887.37995,2476.5286 880.86939,2471.8632 874.40979,2467.0601 868.00164,2462.1201 861.64542,2457.044 855.34163,2451.8325 849.09074,2446.4864 842.89322,2441.0065 836.74955,2435.3936 830.6602,2429.6486 824.62563,2423.7722 818.6463,2417.7655 812.72266,2411.6292 806.85517,2405.3643 801.04428,2398.9717 795.29042,2392.4524 789.59403,2385.8074 783.95556,2379.0376 778.37542,2372.144 772.85404,2365.1278 767.39184,2357.9899 761.98925,2350.7314 756.64666,2343.3533 751.36449,2335.8569 746.14314,2328.2431 740.98301,2320.5132 735.88448,2312.6683 730.84796,2304.7096 725.87381,2296.6382 720.96243,2288.4553 716.11418,2280.1623 711.32943,2271.7602 706.60855,2263.2504 701.9519,2254.6342 697.35984,2245.9128 692.8327,2237.0875 688.37084,2228.1597 683.9746,2219.1306 679.6443,2210.0017 675.38029,2200.7742 671.18289,2191.4496 667.05241,2182.0293 662.98917,2172.5146 658.99348,2162.9071 655.06564,2153.208 651.20595,2143.4189 647.41472,2133.5412 643.69221,2123.5764 640.03873,2113.526 636.45454,2103.3915 632.93993,2093.1744 629.49515,2082.8763 626.12047,2072.4986 622.81615,2062.0429 619.58243,2051.5107 616.41957,2040.9038 613.32781,2030.2235 610.30738,2019.4716 607.35851,2008.6496 604.48142,1997.7591 601.67634,1986.8018 598.94348,1975.7793 596.28305,1964.6932 593.69524,1953.5453 591.18027,1942.3371 588.7383,1931.0704 586.36955,1919.7468 584.07417,1908.3679 581.85236,1896.9357 579.70427,1885.4516 577.63008,1873.9174 575.62994,1862.3349 573.70399,1850.7058 571.8524,1839.0318 570.0753,1827.3147 568.37282,1815.5561 566.74509,1803.7579 565.19225,1791.9219 563.7144,1780.0497 562.31166,1768.1432 560.98414,1756.2042 559.73193,1744.2344 558.55514,1732.2355 557.45385,1720.2095 556.42814,1708.1581 555.4781,1696.083 554.6038,1683.9862 553.8053,1671.8693 553.08267,1659.7343 552.43595,1647.5829 551.8652,1635.4169 551.37047,1623.2382 550.95178,1611.0485 550.60917,1598.8498 550.34268,1586.6437 550.1523,1574.4322 550.03808,1562.217 550,1550 550.03808,1537.783 550.1523,1525.5678 550.34268,1513.3563 550.60917,1501.1502 550.95178,1488.9515 551.37047,1476.7618 551.8652,1464.5831 552.43595,1452.4171 553.08267,1440.2657 553.8053,1428.1307 554.6038,1416.0138 555.4781,1403.917 556.42814,1391.8419 557.45385,1379.7905 558.55514,1367.7645 559.73193,1355.7656 560.98414,1343.7958 562.31166,1331.8568 563.7144,1319.9503 565.19225,1308.0781 566.74509,1296.2421 568.37282,1284.4439 570.0753,1272.6853 571.8524,1260.9682 573.70399,1249.2942 575.62994,1237.6651 577.63008,1226.0826 579.70427,1214.5484 581.85236,1203.0643 584.07417,1191.6321 586.36955,1180.2532 588.7383,1168.9296 591.18027,1157.6629 593.69524,1146.4547 596.28305,1135.3068 598.94348,1124.2207 601.67634,1113.1982 604.48142,1102.2409 607.35851,1091.3504 610.30738,1080.5284 613.32781,1069.7765 616.41957,1059.0962 619.58243,1048.4893 622.81615,1037.9571 626.12047,1027.5014 629.49515,1017.1237 632.93993,1006.8256 636.45454,996.60845 640.03873,986.47395 643.69221,976.42356 647.41472,966.45879 651.20595,956.58111 655.06564,946.79201 658.99348,937.09295 662.98917,927.48536 667.05241,917.9707 671.18289,908.55037 675.38029,899.22578 679.6443,889.99833 683.9746,880.86939 688.37084,871.84033 692.8327,862.91249 697.35984,854.0872 701.9519,845.36579 706.60855,836.74955 711.32943,828.23977 716.11418,819.83772 720.96243,811.54466 725.87381,803.36182 730.84796,795.29042 735.88448,787.33167 740.98301,779.48676 746.14314,771.75685 751.36449,764.14311 756.64666,756.64666 761.98925,749.26863 767.39184,742.01012 772.85404,734.8722 778.37542,727.85596 783.95556,720.96243 789.59403,714.19264 795.29042,707.5476 801.04428,701.02831 806.85517,694.63574 812.72266,688.37084 818.6463,682.23455 824.62563,676.22778 830.6602,670.35143 836.74955,664.60637 842.89322,658.99348 849.09074,653.51357 855.34163,648.16747 861.64542,642.95599 868.00164,637.87988 874.40979,632.93993 880.86939,628.13685 887.37995,623.47137 893.94097,618.94418 900.55195,614.55597 907.21239,610.30738 913.92178,606.19905 920.67961,602.23159 927.48536,598.4056 934.33852,594.72164 941.23857,591.18027 948.18498,587.78201 955.17721,584.52737 962.21475,581.41684 969.29704,578.45088 976.42356,575.62994 983.59376,572.95443 990.8071,570.42475 998.06301,568.04129 1005.361,565.80439 1012.7004,563.7144 1020.0807,561.77162 1027.5014,559.97634 1034.9619,558.32884 1042.4616,556.82935 1050,555.4781 1057.5764,554.2753 1065.1904,553.22112 1072.8412,552.31572 1080.5284,551.55924 1088.2514,550.95178 1096.0095,550.49344 1103.8022,550.18429 1111.6289,550.02437 1119.4889,550.01371 1127.3817,550.1523 1135.3068,550.44014 1143.2634,550.87717 1151.2509,551.46333 1159.2689,552.19853 1167.3166,553.08267 1175.3934,554.1156 1183.4988,555.29718 1191.6321,556.62723 1199.7926,558.10556 1207.9799,559.73193 1216.1931,561.50611 1224.4318,563.42784 1232.6953,565.49682 1240.983,567.71275 1249.2942,570.0753 1257.6283,572.58411 1265.9847,575.23881 1274.3626,578.039 1282.7616,580.98427 1291.181,584.07417 1299.62,587.30825 1308.0781,590.68603 1316.5546,594.20699 1325.0489,597.87061 1333.5604,601.67634 1342.0883,605.62363 1350.6321,609.71187 1359.191,613.94046 1367.7645,618.30877 1376.3518,622.81615 1384.9524,627.46191 1393.5655,632.24537 1402.1906,637.16582 1410.8269,642.22252 1419.4738,647.41472 1428.1307,652.74163 1436.7968,658.20247 1445.4715,663.79642 1454.1542,669.52265 1462.8443,675.38029 1471.5409,681.36849 1480.2435,687.48633 1488.9515,693.73292 1497.664,700.10731 1506.3806,706.60855 1515.1005,713.23569 1523.8231,719.98771 1532.5476,726.86363 1541.2735,733.86241 1550,740.98301 1558.7265,748.22436 1567.4524,755.58538 1576.1769,763.06498 1584.8995,770.66204 1593.6194,778.37542 1602.336,786.20397 1611.0485,794.14653 1619.7565,802.20191 1628.4591,810.36891 1637.1557,818.6463 1645.8458,827.03285 1654.5285,835.52732 1663.2032,844.12843 1671.8693,852.8349 1680.5262,861.64542 1689.1731,870.5587 1697.8094,879.57338 1706.4345,888.68813 1715.0476,897.9016 1723.6482,907.21239 1732.2355,916.61913 1740.809,926.1204 1749.3679,935.7148 1757.9117,945.40089 1766.4396,955.17721 1774.9511,965.04233 1783.4454,974.99475 1791.9219,985.033 1800.38,995.15557 1808.819,1005.361 1817.2384,1015.6477 1825.6374,1026.0141 1834.0153,1036.4587 1842.3717,1046.9801 1850.7058,1057.5764 1859.017,1068.2463 1867.3047,1078.9881 1875.5682,1089.8002 1883.8069,1100.681 1892.0201,1111.6289 1900.2074,1122.6421 1908.3679,1133.7192 1916.5012,1144.8584 1924.6066,1156.0581 1932.6834,1167.3166 1940.7311,1178.6322 1948.7491,1190.0032 1956.7366,1201.428 1964.6932,1212.9047 1972.6183,1224.4318 1980.5111,1236.0075 1988.3711,1247.6301 1996.1978,1259.2978 2003.9905,1271.0089 2011.7486,1282.7616 2019.4716,1294.5542 2027.1588,1306.385 2034.8096,1318.2521 2042.4236,1330.1538 2050,1342.0883 2057.5384,1354.0539 2065.0381,1366.0486 2072.4986,1378.0709 2079.9193,1390.1188 2087.2996,1402.1906 2094.639,1414.2844 2101.937,1426.3985 2109.1929,1438.5311 2116.4062,1450.6803 2123.5764,1462.8443 2130.703,1475.0213 2137.7853,1487.2095 2144.8228,1499.4071 2151.815,1511.6122 2158.7614,1523.8231 2165.6615,1536.0378 2172.5146,1548.2547 2179.3204,1560.4718 2186.0782,1572.6873 2192.7876,1584.8995 2199.448,1597.1065 2206.059,1609.3064 2212.62,1621.4974 2219.1306,1633.6778 2225.5902,1645.8458 2231.9984,1657.9994 2238.3546,1670.1368 2244.6584,1682.2564 2250.9093,1694.3562 2257.1068,1706.4345 2263.2504,1718.4894 2269.3398,1730.5191 2275.3744,1742.522 2281.3537,1754.4961 2287.2773,1766.4396 2293.1448,1778.3509 2298.9557,1790.228 2304.7096,1802.0694 2310.406,1813.873 2316.0444,1825.6374 2321.6246,1837.3605 2327.146,1849.0408 2332.6082,1860.6764 2338.0108,1872.2657 2343.3533,1883.8069 2348.6355,1895.2982 2353.8569,1906.738 2359.017,1918.1246 2364.1155,1929.4562 2369.152,1940.7311 2374.1262,1951.9478 2379.0376,1963.1044 2383.8858,1974.1994 2388.6706,1985.2311 2393.3914,1996.1978 2398.0481,2007.0979 2402.6402,2017.9298 2407.1673,2028.6919 2411.6292,2039.3825 2416.0254,2050 2420.3557,2060.5429 2424.6197,2071.0096 2428.8171,2081.3986 2432.9476,2091.7082 2437.0108,2101.937 2441.0065,2112.0834 2444.9344,2122.1459 2448.794,2132.123 2452.5853,2142.0132 2456.3078,2151.815 2459.9613,2161.527 2463.5455,2171.1478 2467.0601,2180.6758 2470.5049,2190.1097 2473.8795,2199.448 2477.1839,2208.6895 2480.4176,2217.8326 2483.5804,2226.876 2486.6722,2235.8184 2489.6926,2244.6584 2492.6415,2253.3947 2495.5186,2262.026 2498.3237,2270.5511 2501.0565,2278.9686 2503.717,2287.2773 2506.3048,2295.476 2508.8197,2303.5634 2511.2617,2311.5383 2513.6305,2319.3996 2515.9258,2327.146 2518.1476,2334.7764 2520.2957,2342.2896 2522.3699,2349.6847 2524.3701,2356.9603 2526.296,2364.1155 2528.1476,2371.1492 2529.9247,2378.0603 2531.6272,2384.8479 2533.2549,2391.5108 2534.8078,2398.0481 2536.2856,2404.4588 2537.6883,2410.742 2539.0159,2416.8967 2540.2681,2422.9221 2541.4449,2428.8171 2542.5462,2434.581 2543.5719,2440.2128 2544.5219,2445.7118 2545.3962,2451.077 2546.1947,2456.3078 2546.9173,2461.4033 2547.5641,2466.3627 2548.1348,2471.1854 2548.6295,2475.8706 2549.0482,2480.4176 2549.3908,2484.8257 2549.6573,2489.0943 2549.8477,2493.2227 2549.9619,2497.2103 2550,2501.0565 2549.9619,2504.7608 2549.8477,2508.3226 2549.6573,2511.7413 2549.3908,2515.0165 2549.0482,2518.1476 2548.6295,2521.1343 2548.1348,2523.976 2547.5641,2526.6723 2546.9173,2529.2228 2546.1947,2531.6272 2545.3962,2533.885 2544.5219,2535.996 2543.5719,2537.9599 2542.5462,2539.7762 2541.4449,2541.4449 2540.2681,2542.9655 2539.0159,2544.3379 2537.6883,2545.562 2536.2856,2546.6374 2534.8078,2547.5641 2533.2549,2548.3418 2531.6272,2548.9706 2529.9247,2549.4502 2528.1476,2549.7807 2526.296,2549.9619 2524.3701,2549.9939 2522.3699,2549.8766 2520.2957,2549.6101 2518.1476,2549.1944 2515.9258,2548.6295 2513.6305,2547.9156 2511.2617,2547.0528 2508.8197,2546.0411 2506.3048,2544.8807 2503.717,2543.5719 2501.0565,2542.1147 2498.3237,2540.5095 2495.5186,2538.7564 2492.6415,2536.8557 2489.6926,2534.8078 2486.6722,2532.6128 2483.5804,2530.2712 2480.4176,2527.7832 2477.1839,2525.1494 2473.8795,2522.3699 2470.5049,2519.4453 2467.0601,2516.3761 2463.5455,2513.1626 2459.9613,2509.8053 2456.3078,2506.3048 2452.5853,2502.6615 2448.794,2498.876 2444.9344,2494.9489 2441.0065,2490.8808 2437.0108,2486.6722 2432.9476,2482.3238 2428.8171,2477.8363 2424.6197,2473.2102 2420.3557,2468.4464 2416.0254,2463.5455 2411.6292,2458.5082 2407.1673,2453.3353 2402.6402,2448.0276 2398.0481,2442.5858 2393.3914,2437.0108 2388.6706,2431.3035 2383.8858,2425.4645 2379.0376,2419.4949 2374.1262,2413.3956 2369.152,2407.1673 2364.1155,2400.8111 2359.017,2394.3279 2353.8569,2387.7187 2348.6355,2380.9845 2343.3533,2374.1262 2338.0108,2367.1449 2332.6082,2360.0416 2327.146,2352.8175 2321.6246,2345.4735 2316.0444,2338.0108 2310.406,2330.4304 2304.7096,2322.7336 2298.9557,2314.9214 2293.1448,2306.9951 2287.2773,2298.9557 2281.3537,2290.8046 2275.3744,2282.5429 2269.3398,2274.1719 2263.2504,2265.6927 2257.1068,2257.1068 2250.9093,2248.4153 2244.6584,2239.6195 2238.3546,2230.7209 2231.9984,2221.7206 2225.5902,2212.62 2219.1306,2203.4206 2212.62,2194.1236 2206.059,2184.7305 2199.448,2175.2427 2192.7876,2165.6615 2186.0782,2155.9884 2179.3204,2146.2249 2172.5146,2136.3724 2165.6615,2126.4323 2158.7614,2116.4062 2151.815,2106.2956 2144.8228,2096.102 2137.7853,2085.8268 2130.703,2075.4717 2123.5764,2065.0381 2116.4062,2054.5276 2109.1929,2043.9419 2101.937,2033.2824 2094.639,2022.5508 2087.2996,2011.7486 2079.9193,2000.8775 2072.4986,1989.9392 2065.0381,1978.9351 2057.5384,1967.8671 2050,1956.7366 2042.4236,1945.5455 2034.8096,1934.2953 2027.1588,1922.9878 2019.4716,1911.6246 2011.7486,1900.2074 2003.9905,1888.7379 1996.1978,1877.2179 1988.3711,1865.649 1980.5111,1854.0331 1972.6183,1842.3717 1964.6932,1830.6667 1956.7366,1818.9198 1948.7491,1807.1328 1940.7311,1795.3074 1932.6834,1783.4454 1924.6066,1771.5485 1916.5012,1759.6186 1908.3679,1747.6573 1900.2074,1735.6666 1892.0201,1723.6482 1883.8069,1711.6038 1875.5682,1699.5353 1867.3047,1687.4445 1859.017,1675.3332 1850.7058,1663.2032 1842.3717,1651.0563 1834.0153,1638.8943 1825.6374,1626.719 1817.2384,1614.5323 1808.819,1602.336 1800.38,1590.1318 1791.9219,1577.9216 1783.4454,1565.7073 1774.9511,1553.4907 1766.4396,1541.2735 1757.9117,1529.0576 1749.3679,1516.8448 1740.809,1504.637 1732.2355,1492.436 1723.6482,1480.2435 1715.0476,1468.0615 1706.4345,1455.8917 1697.8094,1443.7359 1689.1731,1431.596 1680.5262,1419.4738 1671.8693,1407.3711 1663.2032,1395.2896 1654.5285,1383.2313 1645.8458,1371.1978 1637.1557,1359.191 1628.4591,1347.2127 1619.7565,1335.2647 1611.0485,1323.3487 1602.336,1311.4665 1593.6194,1299.62 1584.8995,1287.8108 1576.1769,1276.0408 1567.4524,1264.3116 1558.7265,1252.6251 1550,1240.983 1541.2735,1229.387 1532.5476,1217.8389 1523.8231,1206.3403 1515.1005,1194.893 1506.3806,1183.4988 1497.664,1172.1592 1488.9515,1160.876 1480.2435,1149.651 1471.5409,1138.4856 1462.8443,1127.3817 1454.1542,1116.3409 1445.4715,1105.3648 1436.7968,1094.4551 1428.1307,1083.6134 1419.4738,1072.8412 1410.8269,1062.1403 1402.1906,1051.5123 1393.5655,1040.9586 1384.9524,1030.4809 1376.3518,1020.0807 1367.7645,1009.7597 1359.191,999.51926 1350.6321,989.36101 1342.0883,979.28643 1333.5604,969.29704 1325.0489,959.39433 1316.5546,949.57977 1308.0781,939.85484 1299.62,930.22097 1291.181,920.67961 1282.7616,911.23218 1274.3626,901.8801 1265.9847,892.62475 1257.6283,883.46753 1249.2942,874.40979 1240.983,865.45289 1232.6953,856.59817 1224.4318,847.84695 1216.1931,839.20053 1207.9799,830.6602 1199.7926,822.22724 1191.6321,813.90291 1183.4988,805.68845 1175.3934,797.58509 1167.3166,789.59403 1159.2689,781.71648 1151.2509,773.95359 1143.2634,766.30654 1135.3068,758.77647 1127.3817,751.36449 1119.4889,744.07172 1111.6289,736.89924 1103.8022,729.84812 1096.0095,722.91943 1088.2514,716.11418 1080.5284,709.4334 1072.8412,702.87808 1065.1904,696.4492 1057.5764,690.14773 1050,683.9746 1042.4616,677.93073 1034.9619,672.01702 1027.5014,666.23437 1020.0807,660.58363 1012.7004,655.06564 1005.361,649.68123 998.06301,644.4312 990.8071,639.31634 983.59376,634.33741 976.42356,629.49515 969.29704,624.79028 962.21475,620.22351 955.17721,615.79553 948.18498,611.50698 941.23857,607.35851 934.33852,603.35074 927.48536,599.48427 920.67961,595.75967 913.92178,592.17751 907.21239,588.7383 900.55195,585.44258 893.94097,582.29083 887.37995,579.28352 880.86939,576.4211 874.40979,573.70399 868.00164,571.13261 861.64542,568.70734 855.34163,566.42853 849.09074,564.29653 842.89322,562.31166 836.74955,560.47421 830.6602,558.78446 824.62563,557.24266 818.6463,555.84904 812.72266,554.6038 806.85517,553.50714 801.04428,552.55922 795.29042,551.76017 789.59403,551.11013 783.95556,550.60917 778.37542,550.25739 772.85404,550.05483 767.39184,550.00152 761.98925,550.09748 756.64666,550.34268 751.36449,550.73708 746.14314,551.28064 740.98301,551.97327 735.88448,552.81487 730.84796,553.8053 725.87381,554.94443 720.96243,556.23208 716.11418,557.66806 711.32943,559.25216 706.60855,560.98414 701.9519,562.86373 697.35984,564.89067 692.8327,567.06465 688.37084,569.38534 683.9746,571.8524 679.6443,574.46546 675.38029,577.22412 671.18289,580.12798 667.05241,583.17661 662.98917,586.36955 658.99348,589.70631 655.06564,593.18642 651.20595,596.80933 647.41472,600.57452 643.69221,604.48142 640.03873,608.52946 636.45454,612.71801 632.93993,617.04647 629.49515,621.51417 626.12047,626.12047 622.81615,630.86466 619.58243,635.74604 616.41957,640.76389 613.32781,645.91745 610.30738,651.20595 607.35851,656.62861 604.48142,662.18461 601.67634,667.87313 598.94348,673.69332 596.28305,679.6443 593.69524,685.7252 591.18027,691.93509 588.7383,698.27307 586.36955,704.73817 584.07417,711.32943 581.85236,718.04588 579.70427,724.8865 577.63008,731.85028 575.62994,738.93618 573.70399,746.14314 571.8524,753.47008 570.0753,760.91592 568.37282,768.47953 566.74509,776.15979 565.19225,783.95556 563.7144,791.86566 562.31166,799.88893 560.98414,808.02416 559.73193,816.27014 558.55514,824.62563 557.45385,833.08939 556.42814,841.66016 555.4781,850.33666 554.6038,859.11759 553.8053,868.00164 553.08267,876.98749 552.43595,886.07379 551.8652,895.25919 551.37047,904.54231 550.95178,913.92178 550.60917,923.39619 550.34268,932.96412 550.1523,942.62416 550.03808,952.37485 550,962.21475 550.03808,972.14238 550.1523,982.15625 550.34268,992.25489 550.60917,1002.4368 550.95178,1012.7004 551.37047,1023.0442 551.8652,1033.4667 552.43595,1043.9662 553.08267,1054.5413 553.8053,1065.1904 554.6038,1075.9118 555.4781,1086.704 556.42814,1097.5653 557.45385,1108.4941 558.55514,1119.4889 559.73193,1130.5479 560.98414,1141.6695 562.31166,1152.8521 563.7144,1164.094 565.19225,1175.3934 566.74509,1186.7488 568.37282,1198.1584 570.0753,1209.6204 571.8524,1221.1334 573.70399,1232.6953 575.62994,1244.3047 577.63008,1255.9597 579.70427,1267.6585 581.85236,1279.3996 584.07417,1291.181 586.36955,1303.001 588.7383,1314.8579 591.18027,1326.7499 593.69524,1338.6752 596.28305,1350.6321 598.94348,1362.6187 601.67634,1374.6333 604.48142,1386.674 607.35851,1398.7392 610.30738,1410.8269 613.32781,1422.9354 616.41957,1435.0628 619.58243,1447.2075 622.81615,1459.3674 626.12047,1471.5409 629.49515,1483.7261 632.93993,1495.9212 636.45454,1508.1243 640.03873,1520.3338 643.69221,1532.5476 647.41472,1544.764 651.20595,1556.9813 655.06564,1569.1974 658.99348,1581.4108 662.98917,1593.6194 667.05241,1605.8215 671.18289,1618.0153 675.38029,1630.1989 679.6443,1642.3706 683.9746,1654.5285 688.37084,1666.6707 692.8327,1678.7956 697.35984,1690.9012 701.9519,1702.9858 706.60855,1715.0476 711.32943,1727.0847 716.11418,1739.0954 720.96243,1751.0779 725.87381,1763.0304 730.84796,1774.9511 735.88448,1786.8381 740.98301,1798.6899 746.14314,1810.5045 751.36449,1822.2802 756.64666,1834.0153 761.98925,1845.7081 767.39184,1857.3566 772.85404,1868.9593 778.37542,1880.5144 783.95556,1892.0201 789.59403,1903.4748 795.29042,1914.8768 801.04428,1926.2243 806.85517,1937.5156 812.72266,1948.7491 818.6463,1959.923 824.62563,1971.0358 830.6602,1982.0857 836.74955,1993.0712 842.89322,2003.9905 849.09074,2014.842 855.34163,2025.6242 861.64542,2036.3354 868.00164,2046.974 874.40979,2057.5384 880.86939,2068.027 887.37995,2078.4383 893.94097,2088.7708 900.55195,2099.0228 907.21239,2109.1929 913.92178,2119.2795 920.67961,2129.2812 927.48536,2139.1964 934.33852,2149.0236 941.23857,2158.7614 948.18498,2168.4084 955.17721,2177.9631 962.21475,2187.424 969.29704,2196.7898 976.42356,2206.059 983.59376,2215.2304 990.8071,2224.3024 998.06301,2233.2738 1005.361,2242.1432 1012.7004,2250.9093 1020.0807,2259.5707 1027.5014,2268.1263 1034.9619,2276.5747 1042.4616,2284.9146 1050,2293.1448 1057.5764,2301.2641 1065.1904,2309.2713 1072.8412,2317.1652 1080.5284,2324.9445 1088.2514,2332.6082 1096.0095,2340.155 1103.8022,2347.5839 1111.6289,2354.8938 1119.4889,2362.0835 1127.3817,2369.152 1135.3068,2376.0983 1143.2634,2382.9212 1151.2509,2389.6199 1159.2689,2396.1932 1167.3166,2402.6402 1175.3934,2408.9599 1183.4988,2415.1514 1191.6321,2421.2138 1199.7926,2427.1462 1207.9799,2432.9476 1216.1931,2438.6172 1224.4318,2444.1542 1232.6953,2449.5578 1240.983,2454.8271 1249.2942,2459.9613 1257.6283,2464.9597 1265.9847,2469.8215 1274.3626,2474.546 1282.7616,2479.1326 1291.181,2483.5804 1299.62,2487.8889 1308.0781,2492.0575 1316.5546,2496.0854 1325.0489,2499.9721 1333.5604,2503.717 1342.0883,2507.3195 1350.6321,2510.7792 1359.191,2514.0954 1367.7645,2517.2678 1376.3518,2520.2957 1384.9524,2523.1789 1393.5655,2525.9168 1402.1906,2528.509 1410.8269,2530.9552 1419.4738,2533.2549 1428.1307,2535.4079 1436.7968,2537.4138 1445.4715,2539.2723 1454.1542,2540.9832 1462.8443,2542.5462 1471.5409,2543.961 1480.2435,2545.2274 1488.9515,2546.3453 1497.664,2547.3145 1506.3806,2548.1348 1515.1005,2548.8061 1523.8231,2549.3284 1532.5476,2549.7015 1541.2735,2549.9254 1550,2550 1558.7265,2549.9254 1567.4524,2549.7015 1576.1769,2549.3284 1584.8995,2548.8061 1593.6194,2548.1348 1602.336,2547.3145 1611.0485,2546.3453 1619.7565,2545.2274 1628.4591,2543.961 1637.1557,2542.5462 1645.8458,2540.9832 1654.5285,2539.2723 1663.2032,2537.4138 1671.8693,2535.4079 1680.5262,2533.2549 1689.1731,2530.9552 1697.8094,2528.509 1706.4345,2525.9168 1715.0476,2523.1789 1723.6482,2520.2957 1732.2355,2517.2678 1740.809,2514.0954 1749.3679,2510.7792 1757.9117,2507.3195 1766.4396,2503.717 1774.9511,2499.9721 1783.4454,2496.0854 1791.9219,2492.0575 1800.38,2487.8889 1808.819,2483.5804 1817.2384,2479.1326 1825.6374,2474.546 1834.0153,2469.8215 1842.3717,2464.9597 1850.7058,2459.9613 1859.017,2454.8271 1867.3047,2449.5578 1875.5682,2444.1542 1883.8069,2438.6172 1892.0201,2432.9476 1900.2074,2427.1462 1908.3679,2421.2138 1916.5012,2415.1514 1924.6066,2408.9599 1932.6834,2402.6402 1940.7311,2396.1932 1948.7491,2389.6199 1956.7366,2382.9212 1964.6932,2376.0983 1972.6183,2369.152 1980.5111,2362.0835 1988.3711,2354.8938 1996.1978,2347.5839 2003.9905,2340.155 2011.7486,2332.6082 2019.4716,2324.9445 2027.1588,2317.1652 2034.8096,2309.2713 2042.4236,2301.2641 2050,2293.1448 2057.5384,2284.9146 2065.0381,2276.5747 2072.4986,2268.1263 2079.9193,2259.5707 2087.2996,2250.9093 2094.639,2242.1432 2101.937,2233.2738 2109.1929,2224.3024 2116.4062,2215.2304 2123.5764,2206.059 2130.703,2196.7898 2137.7853,2187.424 2144.8228,2177.9631 2151.815,2168.4084 2158.7614,2158.7614 2165.6615,2149.0236 2172.5146,2139.1964 2179.3204,2129.2812 2186.0782,2119.2795 2192.7876,2109.1929 2199.448,2099.0228 2206.059,2088.7708 2212.62,2078.4383 2219.1306,2068.027 2225.5902,2057.5384 2231.9984,2046.974 2238.3546,2036.3354 2244.6584,2025.6242 2250.9093,2014.842 2257.1068,2003.9905 2263.2504,1993.0712 2269.3398,1982.0857 2275.3744,1971.0358 2281.3537,1959.923 2287.2773,1948.7491 2293.1448,1937.5156 2298.9557,1926.2243 2304.7096,1914.8768 2310.406,1903.4748 2316.0444,1892.0201 2321.6246,1880.5144 2327.146,1868.9593 2332.6082,1857.3566 2338.0108,1845.7081 2343.3533,1834.0153 2348.6355,1822.2802 2353.8569,1810.5045 2359.017,1798.6899 2364.1155,1786.8381 2369.152,1774.9511 2374.1262,1763.0304 2379.0376,1751.0779 2383.8858,1739.0954 2388.6706,1727.0847 2393.3914,1715.0476 2398.0481,1702.9858 2402.6402,1690.9012 2407.1673,1678.7956 2411.6292,1666.6707 2416.0254,1654.5285 2420.3557,1642.3706 2424.6197,1630.1989 2428.8171,1618.0153 2432.9476,1605.8215 2437.0108,1593.6194 2441.0065,1581.4108 2444.9344,1569.1974 2448.794,1556.9813 2452.5853,1544.764 2456.3078,1532.5476 2459.9613,1520.3338 2463.5455,1508.1243 2467.0601,1495.9212 2470.5049,1483.7261 2473.8795,1471.5409 2477.1839,1459.3674 2480.4176,1447.2075 2483.5804,1435.0628 2486.6722,1422.9354 2489.6926,1410.8269 2492.6415,1398.7392 2495.5186,1386.674 2498.3237,1374.6333 2501.0565,1362.6187 2503.717,1350.6321 2506.3048,1338.6752 2508.8197,1326.7499 2511.2617,1314.8579 2513.6305,1303.001 2515.9258,1291.181 2518.1476,1279.3996 2520.2957,1267.6585 2522.3699,1255.9597 2524.3701,1244.3047 2526.296,1232.6953 2528.1476,1221.1334 2529.9247,1209.6204 2531.6272,1198.1584 2533.2549,1186.7488 2534.8078,1175.3934 2536.2856,1164.094 2537.6883,1152.8521 2539.0159,1141.6695 2540.2681,1130.5479 2541.4449,1119.4889 2542.5462,1108.4941 2543.5719,1097.5653 2544.5219,1086.704 2545.3962,1075.9118 2546.1947,1065.1904 2546.9173,1054.5413 2547.5641,1043.9662 2548.1348,1033.4667 2548.6295,1023.0442 2549.0482,1012.7004 2549.3908,1002.4368 2549.6573,992.25489 2549.8477,982.15625 2549.9619,972.14238 2550,962.21475 2549.9619,952.37485 2549.8477,942.62416 2549.6573,932.96412 2549.3908,923.39619 2549.0482,913.92178 2548.6295,904.54231 2548.1348,895.25919 2547.5641,886.07379 2546.9173,876.98749 2546.1947,868.00164 2545.3962,859.11759 2544.5219,850.33666 2543.5719,841.66016 2542.5462,833.08939 2541.4449,824.62563 2540.2681,816.27014 2539.0159,808.02416 2537.6883,799.88893 2536.2856,791.86566 2534.8078,783.95556 2533.2549,776.15979 2531.6272,768.47953 2529.9247,760.91592 2528.1476,753.47008 2526.296,746.14314 2524.3701,738.93618 2522.3699,731.85028 2520.2957,724.8865 2518.1476,718.04588 2515.9258,711.32943 2513.6305,704.73817 2511.2617,698.27307 2508.8197,691.93509 2506.3048,685.7252 2503.717,679.6443 2501.0565,673.69332 2498.3237,667.87313 2495.5186,662.18461 2492.6415,656.62861 2489.6926,651.20595 2486.6722,645.91745 2483.5804,640.76389 2480.4176,635.74604 2477.1839,630.86466 2473.8795,626.12047 2470.5049,621.51417 2467.0601,617.04647 2463.5455,612.71801 2459.9613,608.52946 2456.3078,604.48142 2452.5853,600.57452 2448.794,596.80933 2444.9344,593.18642 2441.0065,589.70631 2437.0108,586.36955 2432.9476,583.17661 2428.8171,580.12798 2424.6197,577.22412 2420.3557,574.46546 2416.0254,571.8524 2411.6292,569.38534 2407.1673,567.06465 2402.6402,564.89067 2398.0481,562.86373 2393.3914,560.98414 2388.6706,559.25216 2383.8858,557.66806 2379.0376,556.23208 2374.1262,554.94443 2369.152,553.8053 2364.1155,552.81487 2359.017,551.97327 2353.8569,551.28064 2348.6355,550.73708 2343.3533,550.34268 2338.0108,550.09748 2332.6082,550.00152 2327.146,550.05483 2321.6246,550.25739 2316.0444,550.60917 2310.406,551.11013 2304.7096,551.76017 2298.9557,552.55922 2293.1448,553.50714 2287.2773,554.6038 2281.3537,555.84904 2275.3744,557.24266 2269.3398,558.78446 2263.2504,560.47421 2257.1068,562.31166 2250.9093,564.29653 2244.6584,566.42853 2238.3546,568.70734 2231.9984,571.13261 2225.5902,573.70399 2219.1306,576.4211 2212.62,579.28352 2206.059,582.29083 2199.448,585.44258 2192.7876,588.7383 2186.0782,592.17751 2179.3204,595.75967 2172.5146,599.48427 2165.6615,603.35074 2158.7614,607.35851 2151.815,611.50698 2144.8228,615.79553 2137.7853,620.22351 2130.703,624.79028 2123.5764,629.49515 2116.4062,634.33741 2109.1929,639.31634 2101.937,644.4312 2094.639,649.68123 2087.2996,655.06564 2079.9193,660.58363 2072.4986,666.23437 2065.0381,672.01702 2057.5384,677.93073 2050,683.9746 2042.4236,690.14773 2034.8096,696.4492 2027.1588,702.87808 2019.4716,709.4334 2011.7486,716.11418 2003.9905,722.91943 1996.1978,729.84812 1988.3711,736.89924 1980.5111,744.07172 1972.6183,751.36449 1964.6932,758.77647 1956.7366,766.30654 1948.7491,773.95359 1940.7311,781.71648 1932.6834,789.59403 1924.6066,797.58509 1916.5012,805.68845 1908.3679,813.90291 1900.2074,822.22724 1892.0201,830.6602 1883.8069,839.20053 1875.5682,847.84695 1867.3047,856.59817 1859.017,865.45289 1850.7058,874.40979 1842.3717,883.46753 1834.0153,892.62475 1825.6374,901.8801 1817.2384,911.23218 1808.819,920.67961 1800.38,930.22097 1791.9219,939.85484 1783.4454,949.57977 1774.9511,959.39433 1766.4396,969.29704 1757.9117,979.28643 1749.3679,989.36101 1740.809,999.51926 1732.2355,1009.7597 1723.6482,1020.0807 1715.0476,1030.4809 1706.4345,1040.9586 1697.8094,1051.5123 1689.1731,1062.1403 1680.5262,1072.8412 1671.8693,1083.6134 1663.2032,1094.4551 1654.5285,1105.3648 1645.8458,1116.3409 1637.1557,1127.3817 1628.4591,1138.4856 1619.7565,1149.651 1611.0485,1160.876 1602.336,1172.1592 1593.6194,1183.4988 1584.8995,1194.893 1576.1769,1206.3403 1567.4524,1217.8389 1558.7265,1229.387 1550,1240.983 1541.2735,1252.6251 1532.5476,1264.3116 1523.8231,1276.0408 1515.1005,1287.8108 1506.3806,1299.62 1497.664,1311.4665 1488.9515,1323.3487 1480.2435,1335.2647 1471.5409,1347.2127 1462.8443,1359.191 1454.1542,1371.1978 1445.4715,1383.2313 1436.7968,1395.2896 1428.1307,1407.3711 1419.4738,1419.4738 1410.8269,1431.596 1402.1906,1443.7359 1393.5655,1455.8917 1384.9524,1468.0615 1376.3518,1480.2435 1367.7645,1492.436 1359.191,1504.637 1350.6321,1516.8448 1342.0883,1529.0576 1333.5604,1541.2735 1325.0489,1553.4907 1316.5546,1565.7073 1308.0781,1577.9216 1299.62,1590.1318 1291.181,1602.336 1282.7616,1614.5323 1274.3626,1626.719 1265.9847,1638.8943 1257.6283,1651.0563 1249.2942,1663.2032 1240.983,1675.3332 1232.6953,1687.4445 1224.4318,1699.5353 1216.1931,1711.6038 1207.9799,1723.6482 1199.7926,1735.6666 1191.6321,1747.6573 1183.4988,1759.6186 1175.3934,1771.5485 1167.3166,1783.4454 1159.2689,1795.3074 1151.2509,1807.1328 1143.2634,1818.9198 1135.3068,1830.6667 1127.3817,1842.3717 1119.4889,1854.0331 1111.6289,1865.649 1103.8022,1877.2179 1096.0095,1888.7379 1088.2514,1900.2074 1080.5284,1911.6246 1072.8412,1922.9878 1065.1904,1934.2953 1057.5764,1945.5455 1050,1956.7366 1042.4616,1967.8671 1034.9619,1978.9351 1027.5014,1989.9392 1020.0807,2000.8775 1012.7004,2011.7486 1005.361,2022.5508 998.06301,2033.2824 990.8071,2043.9419 983.59376,2054.5276 976.42356,2065.0381 969.29704,2075.4717 962.21475,2085.8268 955.17721,2096.102 948.18498,2106.2956 941.23857,2116.4062 934.33852,2126.4323 927.48536,2136.3724 920.67961,2146.2249 913.92178,2155.9884 907.21239,2165.6615 900.55195,2175.2427 893.94097,2184.7305 887.37995,2194.1236 880.86939,2203.4206 874.40979,2212.62 868.00164,2221.7206 861.64542,2230.7209 855.34163,2239.6195 849.09074,2248.4153 842.89322,2257.1068 836.74955,2265.6927 830.6602,2274.1719 824.62563,2282.5429 818.6463,2290.8046 812.72266,2298.9557 806.85517,2306.9951 801.04428,2314.9214 795.29042,2322.7336 789.59403,2330.4304 783.95556,2338.0108 778.37542,2345.4735 772.85404,2352.8175 767.39184,2360.0416 761.98925,2367.1449 756.64666,2374.1262 751.36449,2380.9845 746.14314,2387.7187 740.98301,2394.3279 735.88448,2400.8111 730.84796,2407.1673 725.87381,2413.3956 720.96243,2419.4949 716.11418,2425.4645 711.32943,2431.3035 706.60855,2437.0108 701.9519,2442.5858 697.35984,2448.0276 692.8327,2453.3353 688.37084,2458.5082 683.9746,2463.5455 679.6443,2468.4464 675.38029,2473.2102 671.18289,2477.8363 667.05241,2482.3238 662.98917,2486.6722 658.99348,2490.8808 655.06564,2494.9489 651.20595,2498.876 647.41472,2502.6615 643.69221,2506.3048 640.03873,2509.8053 636.45454,2513.1626 632.93993,2516.3761 629.49515,2519.4453 626.12047,2522.3699 622.81615,2525.1494 619.58243,2527.7832 616.41957,2530.2712 613.32781,2532.6128 610.30738,2534.8078 607.35851,2536.8557 604.48142,2538.7564 601.67634,2540.5095 598.94348,2542.1147 596.28305,2543.5719 593.69524,2544.8807 591.18027,2546.0411 588.7383,2547.0528 586.36955,2547.9156 584.07417,2548.6295 581.85236,2549.1944 579.70427,2549.6101 577.63008,2549.8766 575.62994,2549.9939 573.70399,2549.9619 571.8524,2549.7807 570.0753,2549.4502 568.37282,2548.9706 566.74509,2548.3418 565.19225,2547.5641 563.7144,2546.6374 562.31166,2545.562 560.98414,2544.3379 559.73193,2542.9655 558.55514,2541.4449 557.45385,2539.7762 556.42814,2537.9599 555.4781,2535.996 554.6038,2533.885 553.8053,2531.6272 553.08267,2529.2228 552.43595,2526.6723 551.8652,2523.976 551.37047,2521.1343 550.95178,2518.1476 550.60917,2515.0165 550.34268,2511.7413 550.1523,2508.3226 550.03808,2504.7608 550,2501.0565 550.03808,2497.2103 550.1523,2493.2227 550.34268,2489.0943 550.60917,2484.8257 550.95178,2480.4176 551.37047,2475.8706 551.8652,2471.1854 552.43595,2466.3627 553.08267,2461.4033 553.8053,2456.3078 554.6038,2451.077 555.4781,2445.7118 556.42814,2440.2128 557.45385,2434.581 558.55514,2428.8171 559.73193,2422.9221 560.98414,2416.8967 562.31166,2410.742 563.7144,2404.4588 565.19225,2398.0481 566.74509,2391.5108 568.37282,2384.8479 570.0753,2378.0603 571.8524,2371.1492 573.70399,2364.1155 575.62994,2356.9603 577.63008,2349.6847 579.70427,2342.2896 581.85236,2334.7764 584.07417,2327.146 586.36955,2319.3996 588.7383,2311.5383 591.18027,2303.5634 593.69524,2295.476 596.28305,2287.2773 598.94348,2278.9686 601.67634,2270.5511 604.48142,2262.026 607.35851,2253.3947 610.30738,2244.6584 613.32781,2235.8184 616.41957,2226.876 619.58243,2217.8326 622.81615,2208.6895 626.12047,2199.448 629.49515,2190.1097 632.93993,2180.6758 636.45454,2171.1478 640.03873,2161.527 643.69221,2151.815 647.41472,2142.0132 651.20595,2132.123 655.06564,2122.1459 658.99348,2112.0834 662.98917,2101.937 667.05241,2091.7082 671.18289,2081.3986 675.38029,2071.0096 679.6443,2060.5429 683.9746,2050 688.37084,2039.3825 692.8327,2028.6919 697.35984,2017.9298 701.9519,2007.0979 706.60855,1996.1978 711.32943,1985.2311 716.11418,1974.1994 720.96243,1963.1044 725.87381,1951.9478 730.84796,1940.7311 735.88448,1929.4562 740.98301,1918.1246 746.14314,1906.738 751.36449,1895.2982 756.64666,1883.8069 761.98925,1872.2657 767.39184,1860.6764 772.85404,1849.0408 778.37542,1837.3605 783.95556,1825.6374 789.59403,1813.873 795.29042,1802.0694 801.04428,1790.228 806.85517,1778.3509 812.72266,1766.4396 818.6463,1754.4961 824.62563,1742.522 830.6602,1730.5191 836.74955,1718.4894 842.89322,1706.4345 849.09074,1694.3562 855.34163,1682.2564 861.64542,1670.1368 868.00164,1657.9994 874.40979,1645.8458 880.86939,1633.6778 887.37995,1621.4974 893.94097,1609.3064 900.55195,1597.1065 907.21239,1584.8995 913.92178,1572.6873 920.67961,1560.4718 927.48536,1548.2547 934.33852,1536.0378 941.23857,1523.8231 948.18498,1511.6122 955.17721,1499.4071 962.21475,1487.2095 969.29704,1475.0213 976.42356,1462.8443 983.59376,1450.6803 990.8071,1438.5311 998.06301,1426.3985 1005.361,1414.2844 1012.7004,1402.1906 1020.0807,1390.1188 1027.5014,1378.0709 1034.9619,1366.0486 1042.4616,1354.0539 1050,1342.0883 1057.5764,1330.1538 1065.1904,1318.2521 1072.8412,1306.385 1080.5284,1294.5542 1088.2514,1282.7616 1096.0095,1271.0089 1103.8022,1259.2978 1111.6289,1247.6301 1119.4889,1236.0075 1127.3817,1224.4318 1135.3068,1212.9047 1143.2634,1201.428 1151.2509,1190.0032 1159.2689,1178.6322 1167.3166,1167.3166 1175.3934,1156.0581 1183.4988,1144.8584 1191.6321,1133.7192 1199.7926,1122.6421 1207.9799,1111.6289 1216.1931,1100.681 1224.4318,1089.8002 1232.6953,1078.9881 1240.983,1068.2463 1249.2942,1057.5764 1257.6283,1046.9801 1265.9847,1036.4587 1274.3626,1026.0141 1282.7616,1015.6477 1291.181,1005.361 1299.62,995.15557 1308.0781,985.033 1316.5546,974.99475 1325.0489,965.04233 1333.5604,955.17721 1342.0883,945.40089 1350.6321,935.7148 1359.191,926.1204 1367.7645,916.61913 1376.3518,907.21239 1384.9524,897.9016 1393.5655,888.68813 1402.1906,879.57338 1410.8269,870.5587 1419.4738,861.64542 1428.1307,852.8349 1436.7968,844.12843 1445.4715,835.52732 1454.1542,827.03285 1462.8443,818.6463 1471.5409,810.36891 1480.2435,802.20191 1488.9515,794.14653 1497.664,786.20397 1506.3806,778.37542 1515.1005,770.66204 1523.8231,763.06498 1532.5476,755.58538 1541.2735,748.22436 1550,740.98301 1558.7265,733.86241 1567.4524,726.86363 1576.1769,719.98771 1584.8995,713.23569 1593.6194,706.60855 1602.336,700.10731 1611.0485,693.73292 1619.7565,687.48633 1628.4591,681.36849 1637.1557,675.38029 1645.8458,669.52265 1654.5285,663.79642 1663.2032,658.20247 1671.8693,652.74163 1680.5262,647.41472 1689.1731,642.22252 1697.8094,637.16582 1706.4345,632.24537 1715.0476,627.46191 1723.6482,622.81615 1732.2355,618.30877 1740.809,613.94046 1749.3679,609.71187 1757.9117,605.62363 1766.4396,601.67634 1774.9511,597.87061 1783.4454,594.20699 1791.9219,590.68603 1800.38,587.30825 1808.819,584.07417 1817.2384,580.98427 1825.6374,578.039 1834.0153,575.23881 1842.3717,572.58411 1850.7058,570.0753 1859.017,567.71275 1867.3047,565.49682 1875.5682,563.42784 1883.8069,561.50611 1892.0201,559.73193 1900.2074,558.10556 1908.3679,556.62723 1916.5012,555.29718 1924.6066,554.1156 1932.6834,553.08267 1940.7311,552.19853 1948.7491,551.46333 1956.7366,550.87717 1964.6932,550.44014 1972.6183,550.1523 1980.5111,550.01371 1988.3711,550.02437 1996.1978,550.18429 2003.9905,550.49344 2011.7486,550.95178 2019.4716,551.55924 2027.1588,552.31572 2034.8096,553.22112 2042.4236,554.2753 2050,555.4781 2057.5384,556.82935 2065.0381,558.32884 2072.4986,559.97634 2079.9193,561.77162 2087.2996,563.7144 2094.639,565.80439 2101.937,568.04129 2109.1929,570.42475 2116.4062,572.95443 2123.5764,575.62994 2130.703,578.45088 2137.7853,581.41684 2144.8228,584.52737 2151.815,587.78201 2158.7614,591.18027 2165.6615,594.72164 2172.5146,598.4056 2179.3204,602.23159 2186.0782,606.19905 2192.7876,610.30738 2199.448,614.55597 2206.059,618.94418 2212.62,623.47137 2219.1306,628.13685 2225.5902,632.93993 2231.9984,637.87988 2238.3546,642.95599 2244.6584,648.16747 2250.9093,653.51357 2257.1068,658.99348 2263.2504,664.60637 2269.3398,670.35143 2275.3744,676.22778 2281.3537,682.23455 2287.2773,688.37084 2293.1448,694.63574 2298.9557,701.02831 2304.7096,707.5476 2310.406,714.19264 2316.0444,720.96243 2321.6246,727.85596 2327.146,734.8722 2332.6082,742.01012 2338.0108,749.26863 2343.3533,756.64666 2348.6355,764.14311 2353.8569,771.75685 2359.017,779.48676 2364.1155,787.33167 2369.152,795.29042 2374.1262,803.36182 2379.0376,811.54466 2383.8858,819.83772 2388.6706,828.23977 2393.3914,836.74955 2398.0481,845.36579 2402.6402,854.0872 2407.1673,862.91249 2411.6292,871.84033 2416.0254,880.86939 2420.3557,889.99833 2424.6197,899.22578 2428.8171,908.55037 2432.9476,917.9707 2437.0108,927.48536 2441.0065,937.09295 2444.9344,946.79201 2448.794,956.58111 2452.5853,966.45879 2456.3078,976.42356 2459.9613,986.47395 2463.5455,996.60845 2467.0601,1006.8256 2470.5049,1017.1237 2473.8795,1027.5014 2477.1839,1037.9571 2480.4176,1048.4893 2483.5804,1059.0962 2486.6722,1069.7765 2489.6926,1080.5284 2492.6415,1091.3504 2495.5186,1102.2409 2498.3237,1113.1982 2501.0565,1124.2207 2503.717,1135.3068 2506.3048,1146.4547 2508.8197,1157.6629 2511.2617,1168.9296 2513.6305,1180.2532 2515.9258,1191.6321 2518.1476,1203.0643 2520.2957,1214.5484 2522.3699,1226.0826 2524.3701,1237.6651 2526.296,1249.2942 2528.1476,1260.9682 2529.9247,1272.6853 2531.6272,1284.4439 2533.2549,1296.2421 2534.8078,1308.0781 2536.2856,1319.9503 2537.6883,1331.8568 2539.0159,1343.7958 2540.2681,1355.7656 2541.4449,1367.7645 2542.5462,1379.7905 2543.5719,1391.8419 2544.5219,1403.917 2545.3962,1416.0138 2546.1947,1428.1307 2546.9173,1440.2657 2547.5641,1452.4171 2548.1348,1464.5831 2548.6295,1476.7618 2549.0482,1488.9515 2549.3908,1501.1502 2549.6573,1513.3563 2549.8477,1525.5678 2549.9619,1537.783 2550,1550 2549.9619,1562.217 2549.8477,1574.4322 2549.6573,1586.6437 2549.3908,1598.8498 2549.0482,1611.0485 "
       stroke="#ff0000"
       id="polygon834"
       transform="matrix(0.1,0,0,0.1,0.05000254,0.05000183)" />
  </g>
</svg>
